<?xml version="1.0" encoding="utf-8"?>
<!-- Generator: Adobe Illustrator 23.0.1, SVG Export Plug-In . SVG Version: 6.00 Build 0)  -->
<svg version="1.1" id="Ebene_1" xmlns="http://www.w3.org/2000/svg" xmlns:xlink="http://www.w3.org/1999/xlink" x="0px" y="0px"
	 viewBox="0 0 100 100" style="enable-background:new 0 0 100 100;" xml:space="preserve">
<style type="text/css">
	.st0{fill:#0D47A1;}
	.st1{fill:#1565C0;}
	.st2{fill:#B0BEC5;}
	.st3{fill:#FFFFFF;}
	.st4{fill:#D50000;}
</style>
<g>
	<g>
		<circle class="st0" cx="50" cy="50" r="17"/>
		<path class="st1" d="M50,67c-9.4,0-17-7.6-17-17s7.6-17,17-17V67z"/>
	</g>
	<g>
		<g>
			<circle class="st2" cx="50" cy="50" r="12.4"/>
		</g>
		<g>
			<circle class="st3" cx="50" cy="50" r="9.7"/>
		</g>
	</g>
</g>
<path class="st4" d="M50.1,49.3l-6.9-0.1c-0.3-1-1.2-1.7-2.3-1.7c-1.3,0-2.4,1.1-2.4,2.4c0,1.3,1.1,2.4,2.4,2.4
	c1.1,0,1.9-0.7,2.3-1.6l6.9,0.1c0,0,0,0,0,0c0.4,0,0.8-0.3,0.8-0.8C50.9,49.7,50.5,49.3,50.1,49.3z"/>
</svg>
