<svg width="200px"  height="200px"  xmlns="http://www.w3.org/2000/svg" viewBox="0 0 100 100" preserveAspectRatio="xMidYMid" class="lds-ripple" style="background: none;">
<style type="text/css">
	.st0{fill:#0D47A1;}
	.st1{fill:#1565C0;}
	.st2{fill:#B0BEC5;}
	.st3{fill:#FFFFFF;}
	.st4{fill:#D50000;}
</style>
	<circle cx="50" cy="50" r="22.7849" fill="none" ng-attr-stroke="{{config.c1}}" ng-attr-stroke-width="{{config.width}}" stroke="#1565c0" stroke-width="2"><animate attributeName="r" calcMode="spline" values="0;40" keyTimes="0;1" dur="1" keySplines="0 0.2 0.8 1" begin="-0.5s" repeatCount="indefinite"></animate><animate attributeName="opacity" calcMode="spline" values="1;0" keyTimes="0;1" dur="1" keySplines="0.2 0 0.8 1" begin="-0.5s" repeatCount="indefinite"></animate></circle><circle cx="50" cy="50" r="38.9377" fill="none" ng-attr-stroke="{{config.c2}}" ng-attr-stroke-width="{{config.width}}" stroke="rgba(0%,0%,0%,0.87)" stroke-width="2"><animate attributeName="r" calcMode="spline" values="0;40" keyTimes="0;1" dur="1" keySplines="0 0.2 0.8 1" begin="0s" repeatCount="indefinite"></animate><animate attributeName="opacity" calcMode="spline" values="1;0" keyTimes="0;1" dur="1" keySplines="0.2 0 0.8 1" begin="0s" repeatCount="indefinite"></animate></circle>

<g>
	<g>
		<circle class="st0" cx="50" cy="50" r="17"/>
		<path class="st1" d="M50,67c-9.4,0-17-7.6-17-17s7.6-17,17-17V67z"/>
	</g>
	<g>
		<g>
			<circle class="st2" cx="50" cy="50" r="12.4"/>
		</g>
		<g>
			<circle class="st3" cx="50" cy="50" r="9.7"/>
		</g>
	</g>
</g>
<path class="st4" d="M50.1,49.3l-6.9-0.1c-0.3-1-1.2-1.7-2.3-1.7c-1.3,0-2.4,1.1-2.4,2.4c0,1.3,1.1,2.4,2.4,2.4
	c1.1,0,1.9-0.7,2.3-1.6l6.9,0.1c0,0,0,0,0,0c0.4,0,0.8-0.3,0.8-0.8C50.9,49.7,50.5,49.3,50.1,49.3z">
<animateTransform attributeName="transform" type="rotate" from="0 50 50" to="360 50 50" dur="4s" repeatCount="indefinite"></animateTransform></path>

</svg>