<svg xmlns="http://www.w3.org/2000/svg" viewBox="0 0 22 22"><title>Zeichenfläche 1 Kopie</title><ellipse cx="11" cy="11.03379" rx="11" ry="10.9831" fill="#2764ad"/><path d="M13.83036,7.42746h0a1.59771,1.59771,0,0,1,1.59771,1.59771V12.945a0,0,0,0,1,0,0H12.23265a0,0,0,0,1,0,0V9.02518a1.59771,1.59771,0,0,1,1.59771-1.59771Z" fill="#fff"/><path d="M12.23265,12.945h1.42709a0,0,0,0,1,0,0v3.64212a.71355.71355,0,0,1-.71355.71355h0a.71355.71355,0,0,1-.71355-.71355V12.945A0,0,0,0,1,12.23265,12.945Z" fill="#fff"/><rect x="7.03944" y="7.77695" width="1.42709" height="9.52372" fill="#fff"/><path d="M14.001,12.945h1.42709a0,0,0,0,1,0,0v3.64212a.71355.71355,0,0,1-.71355.71355h0a.71355.71355,0,0,1-.71355-.71355V12.945a0,0,0,0,1,0,0Z" fill="#fff"/><path d="M10.93669,9.01235h1.12473a0,0,0,0,1,0,0V11.175a.56236.56236,0,0,1-.56236.56236h0a.56236.56236,0,0,1-.56236-.56236V9.01235A0,0,0,0,1,10.93669,9.01235Z" fill="#fff"/><path d="M15.59931,9.01235H16.724a0,0,0,0,1,0,0V11.175a.56236.56236,0,0,1-.56236.56236h0a.56236.56236,0,0,1-.56236-.56236V9.01235a0,0,0,0,1,0,0Z" fill="#fff"/><path d="M12.52158,7.42746h2.61757A1.58489,1.58489,0,0,1,16.724,9.01235v0a0,0,0,0,1,0,0H10.93669a0,0,0,0,1,0,0v0A1.58489,1.58489,0,0,1,12.52158,7.42746Z" fill="#fff"/><circle cx="13.83037" cy="5.47337" r="1.72587" fill="#fff"/><path d="M7.753,3.57678A2.47323,2.47323,0,1,0,10.23,6.05,2.47513,2.47513,0,0,0,7.753,3.57678Zm1.30432,3.5007a.359.359,0,0,1-.50362.05943L7.53088,6.33117a.35751.35751,0,0,1-.13636-.281V4.5533a.3585.3585,0,0,1,.717,0V5.87674l.88645.69807A.35757.35757,0,0,1,9.05731,7.07748Z" fill="#fff"/></svg>