<?xml version="1.0" encoding="utf-8"?>
<!-- Generator: Adobe Illustrator 23.0.1, SVG Export Plug-In . SVG Version: 6.00 Build 0)  -->
<svg version="1.1" id="Ebene_1" xmlns="http://www.w3.org/2000/svg" xmlns:xlink="http://www.w3.org/1999/xlink" x="0px" y="0px"
	 viewBox="0 0 22 32" style="enable-background:new 0 0 22 32;" xml:space="preserve">
<style type="text/css">
	.st0{fill:#1565C0;}
	.st1{fill:#0D47A1;}
	.st2{fill:#B0BEC5;}
	.st3{fill:#FFFFFF;}
	.st4{fill:#2E2D2C;}
	.st5{fill:#D50000;}
</style>
<path class="st0" d="M11,0.5c6.1,0,11,4.9,11,11c0,10.9-9,20.1-11,20.1"/>
<title>Zeichenfläche 1 Kopie</title>
<path class="st1" d="M11,31.5c-2,0-11-9.1-11-20.1c0-6.1,4.9-11,11-11"/>
<g>
	<g>
		<circle class="st2" cx="11" cy="11.5" r="8"/>
	</g>
	<g>
		<circle class="st3" cx="11" cy="11.5" r="6.2"/>
	</g>
</g>
<g>
	<path class="st4" d="M10.9,9.3l-1.1,2.6h1.1V13H9.4l-0.7,1.8H7.3L11,6.7L10.9,9.3z"/>
	<path class="st4" d="M10.9,6.7l3.7,8.1h-1.4L12.5,13h-1.6v-1.1H12l-1.1-2.6V6.7z"/>
</g>
<g>
	<path class="st5" d="M6.4,9C6.2,8.8,6.2,8.6,6.3,8.4C6.5,8.2,6.8,8.1,7,8.2l4.5,3c0.2,0.1,0.3,0.4,0.1,0.7
		c-0.1,0.2-0.4,0.3-0.7,0.1L6.4,9L6.4,9z"/>
</g>
<g>
	<circle class="st5" cx="7.3" cy="8.9" r="1.3"/>
</g>
</svg>
