<?xml version="1.0" encoding="utf-8"?>
<!-- Generator: Adobe Illustrator 23.0.1, SVG Export Plug-In . SVG Version: 6.00 Build 0)  -->
<svg version="1.1" id="Ebene_1" xmlns="http://www.w3.org/2000/svg" xmlns:xlink="http://www.w3.org/1999/xlink" x="0px" y="0px"
	 viewBox="0 0 22 22" style="enable-background:new 0 0 22 22;" xml:space="preserve">
<style type="text/css">
	.st0{fill:#0D47A1;}
	.st1{fill:#1565C0;}
	.st2{fill:#B0BEC5;}
	.st3{fill:#FFFFFF;}
	.st4{fill:#2E2D2C;}
	.st5{fill:#D50000;}
</style>
<title>Zeichenfläche 1 Kopie</title>
<g>
	<circle class="st0" cx="11" cy="11" r="11"/>
	<path class="st1" d="M11,22c-6.1,0-11-4.9-11-11s4.9-11,11-11V22z"/>
</g>
<g>
	<g>
		<circle class="st2" cx="11" cy="11" r="8"/>
	</g>
	<g>
		<circle class="st3" cx="11" cy="11" r="6.2"/>
	</g>
</g>
<g>
	<path class="st4" d="M10.9,8.8l-1.1,2.6h1.1l0,1.1H9.4l-0.7,1.8l-1.4,0l3.7-8.1L10.9,8.8z"/>
	<path class="st4" d="M10.9,6.2l3.7,8.1l-1.4,0l-0.7-1.8h-1.6l0-1.1H12l-1.1-2.6L10.9,6.2z"/>
</g>
<g>
	<path class="st5" d="M6.4,8.5C6.2,8.3,6.2,8.1,6.3,7.9C6.5,7.7,6.8,7.6,7,7.7l4.5,3c0.2,0.1,0.3,0.4,0.1,0.7
		c-0.1,0.2-0.4,0.3-0.7,0.1L6.4,8.5C6.4,8.5,6.4,8.5,6.4,8.5z"/>
</g>
<g>
	<circle class="st5" cx="7.3" cy="8.4" r="1.3"/>
</g>
</svg>
