<?xml version="1.0" encoding="utf-8"?>
<!-- Generator: Adobe Illustrator 23.0.1, SVG Export Plug-In . SVG Version: 6.00 Build 0)  -->
<svg version="1.1" id="Ebene_1" xmlns="http://www.w3.org/2000/svg" xmlns:xlink="http://www.w3.org/1999/xlink" x="0px" y="0px"
	 viewBox="0 0 22 22" style="enable-background:new 0 0 22 22;" xml:space="preserve">
<style type="text/css">
	.st0{fill:#2764AD;}
	.st1{fill:#FFFFFF;}
</style>
<title>Zeichenfläche 1 Kopie</title>
<ellipse class="st0" cx="11" cy="11" rx="11" ry="11"/>
<path class="st1" d="M15.1,7.4h-2.6c-0.9,0-1.6,0.7-1.6,1.6v2.2c0,0.3,0.3,0.6,0.6,0.6c0.3,0,0.6-0.3,0.6-0.6V9h0.2c0,0,0,0,0,0v3.9
	v3.6c0,0.4,0.3,0.7,0.7,0.7c0.4,0,0.7-0.3,0.7-0.7v-3.6H14v3.6c0,0.4,0.3,0.7,0.7,0.7s0.7-0.3,0.7-0.7v-3.6V9c0,0,0,0,0,0h0.2v2.2
	c0,0.3,0.3,0.6,0.6,0.6c0.3,0,0.6-0.3,0.6-0.6V9C16.7,8.1,16,7.4,15.1,7.4z"/>
<circle class="st1" cx="13.8" cy="5.5" r="1.7"/>
<path class="st1" d="M10.2,6c0-1.4-1.1-2.5-2.5-2.5c-1.4,0-2.5,1.1-2.5,2.5c0,1.1,0.7,2,1.8,2.4v8.9h1.4V8.4
	C9.5,8.1,10.2,7.2,10.2,6z M9.1,7.1C9.1,7.1,9.1,7.1,9.1,7.1C8.9,7.2,8.7,7.3,8.6,7.1l-1-0.8C7.4,6.3,7.4,6.2,7.4,6.1V4.6
	c0-0.2,0.2-0.4,0.4-0.4c0.2,0,0.4,0.2,0.4,0.4v1.3L9,6.6C9.2,6.7,9.2,6.9,9.1,7.1z"/>
</svg>
