<?xml version="1.0" encoding="utf-8"?>
<!-- Generator: Adobe Illustrator 23.0.1, SVG Export Plug-In . SVG Version: 6.00 Build 0)  -->
<svg version="1.1" id="Ebene_1" xmlns="http://www.w3.org/2000/svg" xmlns:xlink="http://www.w3.org/1999/xlink" x="0px" y="0px"
	 viewBox="0 0 512 512" style="enable-background:new 0 0 512 512;" xml:space="preserve">
<style type="text/css">
	.st0{fill:#FF0000;}
</style>
<symbol  id="mark" viewBox="-6.5 -44.22 13 68.22">
	<rect x="-6.5" y="-44.22" width="13" height="68.22"/>
</symbol>
<g id="bg_1_">
	
		<use xlink:href="#mark"  width="13" height="68.22" x="-6.5" y="-44.22" transform="matrix(1 0 0 -1 -430.5 24)" style="overflow:visible;"/>
	
		<use xlink:href="#mark"  width="13" height="68.22" x="-6.5" y="-44.22" transform="matrix(6.123234e-17 1 1 -6.123234e-17 -642.7818 256.5)" style="overflow:visible;"/>
	
		<use xlink:href="#mark"  width="13" height="68.22" x="-6.5" y="-44.22" transform="matrix(0.866 -0.5 -0.5 -0.866 -545.567 54.8321)" style="overflow:visible;"/>
	
		<use xlink:href="#mark"  width="13" height="68.22" x="-6.5" y="-44.22" transform="matrix(0.5 -0.866 -0.866 -0.5 -631.6679 139.567)" style="overflow:visible;"/>
	
		<use xlink:href="#mark"  width="13" height="68.22" x="-6.5" y="-44.22" transform="matrix(0.7524 -0.1599 -0.0866 -0.4076 -482.1463 15.3757)" style="overflow:visible;"/>
	
		<use xlink:href="#mark"  width="13" height="68.22" x="-6.5" y="-44.22" transform="matrix(0.765 -0.0804 -0.0436 -0.4144 -456.714 11.3476)" style="overflow:visible;"/>
	
		<use xlink:href="#mark"  width="13" height="68.22" x="-6.5" y="-44.22" transform="matrix(0.7316 -0.2377 -0.1288 -0.3963 -507.0182 22.0401)" style="overflow:visible;"/>
	
		<use xlink:href="#mark"  width="13" height="68.22" x="-6.5" y="-44.22" transform="matrix(0.7027 -0.3129 -0.1695 -0.3806 -531.0572 31.2678)" style="overflow:visible;"/>
	
		<use xlink:href="#mark"  width="13" height="68.22" x="-6.5" y="-44.22" transform="matrix(0.6223 -0.4521 -0.2449 -0.3371 -575.5952 56.9818)" style="overflow:visible;"/>
	
		<use xlink:href="#mark"  width="13" height="68.22" x="-6.5" y="-44.22" transform="matrix(0.5716 -0.5147 -0.2788 -0.3096 -595.6061 73.1864)" style="overflow:visible;"/>
	
		<use xlink:href="#mark"  width="13" height="68.22" x="-6.5" y="-44.22" transform="matrix(0.5147 -0.5716 -0.3096 -0.2788 -613.8136 91.3939)" style="overflow:visible;"/>
	
		<use xlink:href="#mark"  width="13" height="68.22" x="-6.5" y="-44.22" transform="matrix(0.4521 -0.6223 -0.3371 -0.2449 -630.0182 111.4048)" style="overflow:visible;"/>
	
		<use xlink:href="#mark"  width="13" height="68.22" x="-6.5" y="-44.22" transform="matrix(0.3129 -0.7027 -0.3806 -0.1695 -655.7322 155.9428)" style="overflow:visible;"/>
	
		<use xlink:href="#mark"  width="13" height="68.22" x="-6.5" y="-44.22" transform="matrix(0.2377 -0.7316 -0.3963 -0.1288 -664.9599 179.9818)" style="overflow:visible;"/>
	
		<use xlink:href="#mark"  width="13" height="68.22" x="-6.5" y="-44.22" transform="matrix(0.1599 -0.7524 -0.4076 -0.0866 -671.6243 204.8537)" style="overflow:visible;"/>
	
		<use xlink:href="#mark"  width="13" height="68.22" x="-6.5" y="-44.22" transform="matrix(0.0804 -0.765 -0.4144 -0.0436 -675.6524 230.286)" style="overflow:visible;"/>
	
		<use xlink:href="#mark"  width="13" height="68.22" x="-6.5" y="-44.22" transform="matrix(1 0 0 -1 -430.5 467.7818)" style="overflow:visible;"/>
	
		<use xlink:href="#mark"  width="13" height="68.22" x="-6.5" y="-44.22" transform="matrix(-0.5 -0.866 -0.866 0.5 -632.1679 370.567)" style="overflow:visible;"/>
	
		<use xlink:href="#mark"  width="13" height="68.22" x="-6.5" y="-44.22" transform="matrix(-0.866 -0.5 -0.5 0.866 -547.433 456.6679)" style="overflow:visible;"/>
	
		<use xlink:href="#mark"  width="13" height="68.22" x="-6.5" y="-44.22" transform="matrix(-0.1599 -0.7524 -0.4076 0.0866 -671.6243 307.1463)" style="overflow:visible;"/>
	
		<use xlink:href="#mark"  width="13" height="68.22" x="-6.5" y="-44.22" transform="matrix(-0.0804 -0.765 -0.4144 0.0436 -675.6524 281.714)" style="overflow:visible;"/>
	
		<use xlink:href="#mark"  width="13" height="68.22" x="-6.5" y="-44.22" transform="matrix(-0.2377 -0.7316 -0.3963 0.1288 -664.9599 332.0182)" style="overflow:visible;"/>
	
		<use xlink:href="#mark"  width="13" height="68.22" x="-6.5" y="-44.22" transform="matrix(-0.3129 -0.7027 -0.3806 0.1695 -655.7322 356.0572)" style="overflow:visible;"/>
	
		<use xlink:href="#mark"  width="13" height="68.22" x="-6.5" y="-44.22" transform="matrix(-0.4521 -0.6223 -0.3371 0.2449 -630.0182 400.5952)" style="overflow:visible;"/>
	
		<use xlink:href="#mark"  width="13" height="68.22" x="-6.5" y="-44.22" transform="matrix(-0.5147 -0.5716 -0.3096 0.2788 -613.8136 420.6061)" style="overflow:visible;"/>
	
		<use xlink:href="#mark"  width="13" height="68.22" x="-6.5" y="-44.22" transform="matrix(-0.5716 -0.5147 -0.2788 0.3096 -595.6061 438.8136)" style="overflow:visible;"/>
	
		<use xlink:href="#mark"  width="13" height="68.22" x="-6.5" y="-44.22" transform="matrix(-0.6223 -0.4521 -0.2449 0.3371 -575.5952 455.0182)" style="overflow:visible;"/>
	
		<use xlink:href="#mark"  width="13" height="68.22" x="-6.5" y="-44.22" transform="matrix(-0.7027 -0.3129 -0.1695 0.3806 -531.0572 480.7322)" style="overflow:visible;"/>
	
		<use xlink:href="#mark"  width="13" height="68.22" x="-6.5" y="-44.22" transform="matrix(-0.7316 -0.2377 -0.1288 0.3963 -507.0182 489.9599)" style="overflow:visible;"/>
	
		<use xlink:href="#mark"  width="13" height="68.22" x="-6.5" y="-44.22" transform="matrix(-0.7524 -0.1599 -0.0866 0.4076 -482.1463 496.6243)" style="overflow:visible;"/>
	
		<use xlink:href="#mark"  width="13" height="68.22" x="-6.5" y="-44.22" transform="matrix(-0.765 -0.0804 -0.0436 0.4144 -456.714 500.6524)" style="overflow:visible;"/>
	
		<use xlink:href="#mark"  width="13" height="68.22" x="-6.5" y="-44.22" transform="matrix(6.123234e-17 -1 -1 -6.123234e-17 -219.2182 255.8476)" style="overflow:visible;"/>
	
		<use xlink:href="#mark"  width="13" height="68.22" x="-6.5" y="-44.22" transform="matrix(-0.866 0.5 0.5 0.866 -316.433 457.5155)" style="overflow:visible;"/>
	
		<use xlink:href="#mark"  width="13" height="68.22" x="-6.5" y="-44.22" transform="matrix(-0.5 0.866 0.866 0.5 -230.3321 372.7807)" style="overflow:visible;"/>
	
		<use xlink:href="#mark"  width="13" height="68.22" x="-6.5" y="-44.22" transform="matrix(-0.7524 0.1599 0.0866 0.4076 -379.8537 496.972)" style="overflow:visible;"/>
	
		<use xlink:href="#mark"  width="13" height="68.22" x="-6.5" y="-44.22" transform="matrix(-0.765 0.0804 0.0436 0.4144 -405.286 501)" style="overflow:visible;"/>
	
		<use xlink:href="#mark"  width="13" height="68.22" x="-6.5" y="-44.22" transform="matrix(-0.7316 0.2377 0.1288 0.3963 -354.9818 490.3076)" style="overflow:visible;"/>
	
		<use xlink:href="#mark"  width="13" height="68.22" x="-6.5" y="-44.22" transform="matrix(-0.7027 0.3129 0.1695 0.3806 -330.9428 481.0798)" style="overflow:visible;"/>
	
		<use xlink:href="#mark"  width="13" height="68.22" x="-6.5" y="-44.22" transform="matrix(-0.6223 0.4521 0.2449 0.3371 -286.4048 455.3658)" style="overflow:visible;"/>
	
		<use xlink:href="#mark"  width="13" height="68.22" x="-6.5" y="-44.22" transform="matrix(-0.5716 0.5147 0.2788 0.3096 -266.3939 439.1613)" style="overflow:visible;"/>
	
		<use xlink:href="#mark"  width="13" height="68.22" x="-6.5" y="-44.22" transform="matrix(-0.5147 0.5716 0.3096 0.2788 -248.1864 420.9538)" style="overflow:visible;"/>
	
		<use xlink:href="#mark"  width="13" height="68.22" x="-6.5" y="-44.22" transform="matrix(-0.4521 0.6223 0.3371 0.2449 -231.9818 400.9428)" style="overflow:visible;"/>
	
		<use xlink:href="#mark"  width="13" height="68.22" x="-6.5" y="-44.22" transform="matrix(-0.3129 0.7027 0.3806 0.1695 -206.2678 356.4048)" style="overflow:visible;"/>
	
		<use xlink:href="#mark"  width="13" height="68.22" x="-6.5" y="-44.22" transform="matrix(-0.2377 0.7316 0.3963 0.1288 -197.0401 332.3658)" style="overflow:visible;"/>
	
		<use xlink:href="#mark"  width="13" height="68.22" x="-6.5" y="-44.22" transform="matrix(-0.1599 0.7524 0.4076 0.0866 -190.3757 307.4939)" style="overflow:visible;"/>
	
		<use xlink:href="#mark"  width="13" height="68.22" x="-6.5" y="-44.22" transform="matrix(-0.0804 0.765 0.4144 0.0436 -186.3476 282.0616)" style="overflow:visible;"/>
	
		<use xlink:href="#mark"  width="13" height="68.22" x="-6.5" y="-44.22" transform="matrix(0.5 0.866 0.866 -0.5 -228.9523 141.2486)" style="overflow:visible;"/>
	
		<use xlink:href="#mark"  width="13" height="68.22" x="-6.5" y="-44.22" transform="matrix(0.866 0.5 0.5 -0.866 -313.6872 55.1476)" style="overflow:visible;"/>
	
		<use xlink:href="#mark"  width="13" height="68.22" x="-6.5" y="-44.22" transform="matrix(0.1599 0.7524 0.4076 -0.0866 -189.4959 204.6693)" style="overflow:visible;"/>
	
		<use xlink:href="#mark"  width="13" height="68.22" x="-6.5" y="-44.22" transform="matrix(0.0804 0.765 0.4144 -0.0436 -185.4679 230.1015)" style="overflow:visible;"/>
	
		<use xlink:href="#mark"  width="13" height="68.22" x="-6.5" y="-44.22" transform="matrix(0.2377 0.7316 0.3963 -0.1288 -196.1603 179.7973)" style="overflow:visible;"/>
	
		<use xlink:href="#mark"  width="13" height="68.22" x="-6.5" y="-44.22" transform="matrix(0.3129 0.7027 0.3806 -0.1695 -205.3881 155.7583)" style="overflow:visible;"/>
	
		<use xlink:href="#mark"  width="13" height="68.22" x="-6.5" y="-44.22" transform="matrix(0.4521 0.6223 0.3371 -0.2449 -231.1021 111.2204)" style="overflow:visible;"/>
	
		<use xlink:href="#mark"  width="13" height="68.22" x="-6.5" y="-44.22" transform="matrix(0.5147 0.5716 0.3096 -0.2788 -247.3066 91.2094)" style="overflow:visible;"/>
	
		<use xlink:href="#mark"  width="13" height="68.22" x="-6.5" y="-44.22" transform="matrix(0.5716 0.5147 0.2788 -0.3096 -265.5141 73.0019)" style="overflow:visible;"/>
	
		<use xlink:href="#mark"  width="13" height="68.22" x="-6.5" y="-44.22" transform="matrix(0.6223 0.4521 0.2449 -0.3371 -285.5251 56.7974)" style="overflow:visible;"/>
	
		<use xlink:href="#mark"  width="13" height="68.22" x="-6.5" y="-44.22" transform="matrix(0.7027 0.3129 0.1695 -0.3806 -330.063 31.0834)" style="overflow:visible;"/>
	
		<use xlink:href="#mark"  width="13" height="68.22" x="-6.5" y="-44.22" transform="matrix(0.7316 0.2377 0.1288 -0.3963 -354.1021 21.8556)" style="overflow:visible;"/>
	
		<use xlink:href="#mark"  width="13" height="68.22" x="-6.5" y="-44.22" transform="matrix(0.7524 0.1599 0.0866 -0.4076 -378.974 15.1912)" style="overflow:visible;"/>
	
		<use xlink:href="#mark"  width="13" height="68.22" x="-6.5" y="-44.22" transform="matrix(0.765 0.0804 0.0436 -0.4144 -404.4062 11.1631)" style="overflow:visible;"/>
</g>
<polygon id="min_1_" points="-411.66,311 -449.34,311 -437.92,34 -423.08,34 "/>
<polygon id="hour_1_" points="-411.66,311 -449.34,311 -437.92,99.12 -423.08,99.12 "/>
<g id="sec_1_">
	<rect x="-436" y="61" class="st0" width="10" height="231"/>
	<circle class="st0" cx="-431" cy="44" r="26"/>
</g>
</svg>
